# xmcd
#
# Track frame offsets: 
#        150
#        27705
#        47257
#        65830
#        97420
#        106970
#        121640
#        139772
#        157755
#        167830
#        188705
#        205452
#        224040
#        240990
#        263130
#        286315
#        296150
#        311782
#        328992
#
# Disc length: 4600 seconds
#
# Revision: 2
# Processed by: cddbd v1.5.2PL0 Copyright (c) Steve Scherf et al.
# Submitted via: ExactAudioCopy v0.99pb5
#
DISCID=2c11f613
DTITLE=Jazz - I Love Jazz Vo.1 [Disc 2]
DYEAR=2004
DGENRE=Jazz
TTITLE0=Chuck Mangione - Give It All You Got
TTITLE1=Randy Crawford - One Day I'll Fly Away
TTITLE2=The Brand New Heavies - Midnight At The Oasis
TTITLE3=Stanley Jordan - Eleanor Rigby
TTITLE4=Robbie Gentry - Son Of A Preacher Man
TTITLE5=Bob Dorough - There Is A Magic Number
TTITLE6=St. German - Rose Rouge
TTITLE7=Shuggie Otis - Strawberry Letter 23
TTITLE8=Nancy Wilson - Call Me
TTITLE9=Donald Byrd - Just My Imagination (Running Away With Me)
TTITLE10=Luther Vandross - So Amazing
TTITLE11=Cassandra Wilson - Time After Time
TTITLE12=Minnie Ripperton - Loving You
TTITLE13=Bob Belden - Sister Moon
TTITLE14=Carleen Anderson - Maybe I'm Amazed
TTITLE15=Peggy Lee - I'm A Woman
TTITLE16=Nat King Cole - Unforgettable
TTITLE17=Lou Rawls - The Girl From Ipanema
TTITLE18=Cannonball Adderly - Sambop
EXTD=YEAR: 2004
EXTT0=
EXTT1=
EXTT2=
EXTT3=
EXTT4=
EXTT5=
EXTT6=
EXTT7=
EXTT8=
EXTT9=
EXTT10=
EXTT11=
EXTT12=
EXTT13=
EXTT14=
EXTT15=
EXTT16=
EXTT17=
EXTT18=
PLAYORDER=
